<?xml version="1.0" encoding="UTF-8" standalone="no"?>
<svg
   xmlns:dc="http://purl.org/dc/elements/1.1/"
   xmlns:cc="http://creativecommons.org/ns#"
   xmlns:rdf="http://www.w3.org/1999/02/22-rdf-syntax-ns#"
   xmlns:svg="http://www.w3.org/2000/svg"
   xmlns="http://www.w3.org/2000/svg"
   xmlns:xlink="http://www.w3.org/1999/xlink"
   xmlns:sodipodi="http://sodipodi.sourceforge.net/DTD/sodipodi-0.dtd"
   xmlns:inkscape="http://www.inkscape.org/namespaces/inkscape"
   inkscape:export-ydpi="110.99197"
   inkscape:export-xdpi="110.99197"
   inkscape:export-filename="/home/ninjawarrior1337/Pictures/logo2020/hanamaru.png"
   sodipodi:docname="hanamaru.svg"
   inkscape:version="1.0 (4035a4fb49, 2020-05-01)"
   id="svg8"
   version="1.1"
   viewBox="0 0 117.16883 116.02506"
   height="116.02506mm"
   width="117.16883mm">
  <defs
     id="defs2">
    <linearGradient
       id="linearGradient844"
       inkscape:collect="always">
      <stop
         id="stop840"
         offset="0"
         style="stop-color:#e4007f;stop-opacity:1" />
      <stop
         id="stop842"
         offset="1"
         style="stop-color:#3399ff;stop-opacity:1" />
    </linearGradient>
    <linearGradient
       gradientUnits="userSpaceOnUse"
       y2="135.15825"
       x2="91.603271"
       y1="139.37041"
       x1="87.729782"
       id="linearGradient846"
       xlink:href="#linearGradient844"
       inkscape:collect="always" />
  </defs>
  <sodipodi:namedview
     inkscape:window-maximized="1"
     inkscape:window-y="0"
     inkscape:window-x="0"
     inkscape:window-height="1003"
     inkscape:window-width="1920"
     showguides="false"
     showgrid="false"
     inkscape:document-rotation="0"
     inkscape:current-layer="layer1"
     inkscape:document-units="mm"
     inkscape:cy="264.06948"
     inkscape:cx="55.304504"
     inkscape:zoom="0.98994949"
     inkscape:pageshadow="2"
     inkscape:pageopacity="0.0"
     borderopacity="1.0"
     bordercolor="#666666"
     pagecolor="#ffffff"
     id="base" />
  <metadata
     id="metadata5">
    <rdf:RDF>
      <cc:Work
         rdf:about="">
        <dc:format>image/svg+xml</dc:format>
        <dc:type
           rdf:resource="http://purl.org/dc/dcmitype/StillImage" />
        <dc:title></dc:title>
      </cc:Work>
    </rdf:RDF>
  </metadata>
  <g
     transform="translate(-57.035132,-63.864429)"
     id="layer1"
     inkscape:groupmode="layer"
     inkscape:label="Layer 1">
    <g
       transform="matrix(12.007706,0,0,12.007706,-972.7612,-1493.6293)"
       style="font-style:normal;font-weight:normal;font-size:10.5833px;line-height:1.25;font-family:sans-serif;letter-spacing:0px;word-spacing:0px;fill:#000000;fill-opacity:1;stroke:none;stroke-width:0.264583"
       id="text835"
       aria-label="花">
      <path
         id="path837"
         style="fill:url(#linearGradient846);fill-opacity:1;stroke-width:0.264583"
         d="m 88.608196,132.53359 c -0.656165,1.35466 -1.725078,2.64582 -2.846908,3.46074 0.179916,0.13758 0.507999,0.40216 0.634998,0.55033 0.444499,-0.37042 0.899581,-0.81491 1.333496,-1.31233 v 4.13807 h 0.772581 v -5.12232 c 0.328082,-0.47624 0.624415,-0.96308 0.878414,-1.47107 z m 3.450156,-1.10066 v 1.16416 h 0.783164 v -1.16416 h 2.487075 v -0.762 h -2.487075 v -0.96308 h -0.783164 v 0.96308 h -2.656409 v -0.96308 h -0.783164 v 0.96308 h -2.529408 v 0.762 h 2.529408 v 1.10066 h 0.783164 v -1.10066 z m 0.190499,7.04847 c -0.539748,0 -0.645581,-0.0953 -0.645581,-0.52916 v -2.07433 c 1.206496,-0.49741 2.539992,-1.11124 3.481905,-1.73566 l -0.603248,-0.58208 c -0.677331,0.51858 -1.799161,1.12183 -2.878657,1.59808 v -2.52941 h -0.772581 v 5.31282 c 0,1.00541 0.296332,1.28058 1.354662,1.28058 h 2.010827 c 0.984247,0 1.21708,-0.47625 1.322913,-2.04258 -0.211666,-0.0529 -0.529165,-0.1905 -0.719665,-0.32808 -0.0635,1.35466 -0.148166,1.62982 -0.645581,1.62982 z" />
    </g>
    <text
       id="text868"
       y="113.53049"
       x="130.5137"
       style="font-style:normal;font-weight:normal;font-size:10.5833px;line-height:1.25;font-family:sans-serif;letter-spacing:0px;word-spacing:0px;fill:#000000;fill-opacity:1;stroke:none;stroke-width:0.264583"
       xml:space="preserve"><tspan
         style="stroke-width:0.264583"
         y="113.53049"
         x="130.5137"
         id="tspan866"
         sodipodi:role="line" /></text>
  </g>
</svg>
